<?xml version="1.0" standalone="no"?>
<!DOCTYPE svg PUBLIC "-//W3C//DTD SVG 20010904//EN"
 "http://www.w3.org/TR/2001/REC-SVG-20010904/DTD/svg10.dtd">
<svg version="1.0" xmlns="http://www.w3.org/2000/svg"
 width="500.000000pt" height="500.000000pt" viewBox="0 0 500.000000 500.000000"
 preserveAspectRatio="xMidYMid meet">
<metadata>
Created by potrace 1.11, written by Peter Selinger 2001-2013
</metadata>
<g transform="translate(0.000000,500.000000) scale(0.100000,-0.100000)"
fill="#000000" stroke="none">
<path d="M2890 4068 c-343 -35 -662 -220 -774 -450 -37 -77 -47 -115 -48 -185
0 -24 -1 -43 -4 -43 -2 0 -25 13 -52 30 -185 114 -368 133 -573 62 -180 -63
-360 -254 -421 -445 -15 -47 -18 -79 -14 -130 5 -67 5 -67 -17 -55 -36 20
-193 16 -252 -6 -145 -55 -282 -185 -359 -338 -92 -185 -104 -339 -35 -484 46
-97 143 -188 261 -242 60 -28 199 -68 256 -75 50 -5 51 -6 58 -43 65 -376 351
-630 730 -651 170 -9 318 26 457 108 76 45 214 175 241 228 l17 31 46 -57
c172 -214 359 -320 583 -330 228 -11 420 80 624 295 84 89 140 183 172 287 10
33 19 62 20 64 2 2 17 -7 33 -19 159 -113 483 -125 679 -26 269 137 394 479
271 740 -35 75 -103 131 -193 160 -17 6 -17 8 -3 24 34 39 79 128 92 186 36
153 3 335 -94 501 -45 79 -161 193 -231 227 -181 89 -432 83 -623 -14 -57 -28
-58 -28 -52 -7 12 37 9 181 -5 239 -31 133 -125 258 -245 325 -50 28 -180 80
-205 83 -3 0 -31 3 -64 7 -83 11 -189 12 -276 3z m282 -133 c170 -35 289 -119
347 -245 21 -46 26 -71 27 -155 1 -55 -4 -133 -10 -172 -7 -40 -11 -73 -9 -73
2 0 -4 -14 -13 -31 -19 -38 -11 -49 42 -54 45 -4 53 -1 76 36 34 53 261 121
408 121 103 0 163 -13 238 -51 147 -75 255 -257 265 -446 6 -113 -31 -200
-127 -295 -61 -61 -71 -94 -36 -125 12 -11 41 -20 68 -23 158 -13 256 -146
238 -326 -20 -212 -140 -348 -344 -391 -196 -41 -371 15 -518 167 -71 74 -77
78 -119 78 -33 0 -50 -6 -65 -22 -24 -26 -24 -24 -6 -114 24 -127 3 -224 -73
-340 -94 -144 -286 -282 -431 -310 -105 -20 -218 -7 -320 36 -140 59 -293 204
-370 350 -26 50 -60 67 -100 50 -23 -9 -40 -31 -71 -90 -41 -79 -129 -181
-202 -234 -67 -49 -179 -94 -277 -111 -46 -9 -164 -9 -220 0 -97 14 -257 82
-306 130 -7 6 -25 22 -40 36 -103 87 -182 242 -199 391 -8 75 -14 79 -135 98
-244 39 -424 158 -471 312 -30 98 -2 250 69 372 41 71 159 192 224 230 119 69
265 84 360 36 47 -23 70 -22 51 2 -16 21 -37 110 -34 143 1 17 14 59 28 95 90
228 303 390 517 392 160 2 256 -40 425 -189 40 -35 80 -63 91 -63 23 0 61 46
57 69 -4 20 -26 62 -44 79 -28 28 -7 145 43 243 40 76 143 186 223 237 118 76
303 142 445 158 28 4 52 8 54 9 6 5 212 -3 244 -10z"/>
</g>
</svg>
